# xmcd CD database file
#
# Track frame offsets:
#	150
#	17067
#	30132
#	45975
#	57694
#	72407
#	86991
#	102012
#	114797
#	129245
#	144934
#	158131
#	171849
#	181930
#	194745
#	207254
#	217298
#	230710
#	244637
#	258253
#	270862
#	283655
#
# Disc length: 3954 seconds
#
# Revision: 0
# Processed by: cddbd v1.5.2PL0 Copyright (c) Steve Scherf et al.
# Submitted via: CDex 1.51
#
DISCID=370f7016
DTITLE=Jefferson Moraes - CD Promocional
DYEAR=2015
DGENRE=Country
TTITLE0=Vou Levando
TTITLE1=Tô Bebendo
TTITLE2=Agora me Assiste
TTITLE3=Judia de Mim
TTITLE4=Voce Merece Mais
TTITLE5=Vem Que Eu Te Quero Amor
TTITLE6=Minha Abelha
TTITLE7=Mando ou Não Mando
TTITLE8=Boteco do Seu Zé
TTITLE9=Fiz Amor Por Fazer
TTITLE10=Palavras Não Curam
TTITLE11=Barquinho
TTITLE12=Vai Dar Bom
TTITLE13=Continente
TTITLE14=Vida Dificil
TTITLE15=Me Passando Pra Frente
TTITLE16=Ontem Vi Voce
TTITLE17=Sempre Seu Homem
TTITLE18=Taça de Prantos
TTITLE19=Se Vc Quer Saber
TTITLE20=Festa no Deck
TTITLE21=Extra
EXTD=YEAR: 2015
EXTT0=
EXTT1=
EXTT2=
EXTT3=
EXTT4=
EXTT5=
EXTT6=
EXTT7=
EXTT8=
EXTT9=
EXTT10=
EXTT11=
EXTT12=
EXTT13=
EXTT14=
EXTT15=
EXTT16=
EXTT17=
EXTT18=
EXTT19=
EXTT20=
EXTT21=
PLAYORDER=
